<svg xmlns="http://www.w3.org/2000/svg" width="128" height="128" viewBox="0 0 128 128">
  <g transform="translate(-1.04,29.48) scale(8.7183)"><rect x="4.080" y="3.080" width="0.84" height="0.84" rx="0.13" fill="#f1efe8"></rect><rect x="4.080" y="4.080" width="0.84" height="0.84" rx="0.13" fill="#f1efe8"></rect><rect x="4.080" y="5.080" width="0.84" height="0.84" rx="0.13" fill="#f1efe8"></rect><rect x="5.080" y="3.080" width="0.84" height="0.84" rx="0.13" fill="#f1efe8"></rect><rect x="5.080" y="4.080" width="0.84" height="0.84" rx="0.13" fill="#f1efe8"></rect><rect x="5.080" y="5.080" width="0.84" height="0.84" rx="0.13" fill="#f1efe8"></rect><rect x="6.080" y="2.080" width="0.84" height="0.84" rx="0.13" fill="#f1efe8"></rect><rect x="6.080" y="3.080" width="0.84" height="0.84" rx="0.13" fill="#f1efe8"></rect><rect x="6.080" y="4.080" width="0.84" height="0.84" rx="0.13" fill="#f1efe8"></rect><rect x="6.080" y="5.080" width="0.84" height="0.84" rx="0.13" fill="#f1efe8"></rect><rect x="6.080" y="6.080" width="0.84" height="0.84" rx="0.13" fill="#f1efe8"></rect><rect x="7.080" y="2.080" width="0.84" height="0.84" rx="0.13" fill="#f1efe8"></rect><rect x="7.080" y="3.080" width="0.84" height="0.84" rx="0.13" fill="#f1efe8"></rect><rect x="7.080" y="4.080" width="0.84" height="0.84" rx="0.13" fill="#f1efe8"></rect><rect x="7.080" y="5.080" width="0.84" height="0.84" rx="0.13" fill="#f1efe8"></rect><rect x="7.080" y="6.080" width="0.84" height="0.84" rx="0.13" fill="#f1efe8"></rect><rect x="8.080" y="2.080" width="0.84" height="0.84" rx="0.13" fill="#f1efe8"></rect><rect x="8.080" y="3.080" width="0.84" height="0.84" rx="0.13" fill="#f1efe8"></rect><rect x="8.080" y="4.080" width="0.84" height="0.84" rx="0.13" fill="#f1efe8"></rect><rect x="8.080" y="5.080" width="0.84" height="0.84" rx="0.13" fill="#f1efe8"></rect><rect x="8.080" y="6.080" width="0.84" height="0.84" rx="0.13" fill="#f1efe8"></rect><rect x="9.080" y="4.080" width="0.84" height="0.84" rx="0.13" fill="#f1efe8"></rect><rect x="9.080" y="5.080" width="0.84" height="0.84" rx="0.13" fill="#f1efe8"></rect><rect x="10.080" y="3.080" width="0.84" height="0.84" rx="0.13" fill="#f1efe8"></rect><rect x="10.080" y="4.080" width="0.84" height="0.84" rx="0.13" fill="#f1efe8"></rect><rect x="10.080" y="5.080" width="0.84" height="0.84" rx="0.13" fill="#f1efe8"></rect><rect x="3.080" y="4.080" width="0.84" height="0.84" rx="0.13" fill="#f1efe8"></rect><rect x="2.080" y="3.080" width="0.84" height="0.84" rx="0.13" fill="#f1efe8"></rect><rect x="2.080" y="4.080" width="0.84" height="0.84" rx="0.13" fill="#f1efe8"></rect><rect x="2.080" y="5.080" width="0.84" height="0.84" rx="0.13" fill="#f1efe8"></rect><rect x="1.080" y="2.080" width="0.84" height="0.84" rx="0.13" fill="#f1efe8"></rect><rect x="1.080" y="3.080" width="0.84" height="0.84" rx="0.13" fill="#f1efe8"></rect><rect x="1.080" y="5.080" width="0.84" height="0.84" rx="0.13" fill="#f1efe8"></rect><rect x="1.080" y="6.080" width="0.84" height="0.84" rx="0.13" fill="#f1efe8"></rect><rect x="7.080" y="1.080" width="0.84" height="0.84" rx="0.13" fill="#f1efe8"></rect><rect x="12.080" y="3.080" width="0.84" height="0.84" rx="0.13" fill="#f1efe8"></rect><rect x="13.080" y="1.080" width="0.84" height="0.84" rx="0.13" fill="#f1efe8"></rect></g>
</svg>